<?xml version="1.0" encoding="utf-8"?>
<svg viewBox="0 0 1230.97 874.471" xmlns="http://www.w3.org/2000/svg">
  <defs>
    <style>.cls-1{fill:#FFFFFF;}</style>
  </defs>
  <path class="cls-1" d="M126.35,618c11.32,8.75,69.13,33,348.32,71.66l45-151.64s-320.61-6.88-393.88,73.58A4.36,4.36,0,0,0,126.35,618Z" transform="matrix(1, 0, 0, 1, -124.650002, -97.839996)"/>
  <path class="cls-1" d="M1341.69,613.42c2-1.56,2.52-4.82.55-6.4-92.07-73.7-394.32-73.55-394.32-73.55L1004,682.09C1274.67,643.46,1330.72,622.18,1341.69,613.42Z" transform="matrix(1, 0, 0, 1, -124.650002, -97.839996)"/>
  <path class="cls-1" d="M497.34,689.61C621.34,700.92,736,695,736,695L511.34,624.31Z" transform="matrix(1, 0, 0, 1, -124.650002, -97.839996)"/>
  <path class="cls-1" d="M978,682.09,963,654l-65.84,35.17C946.51,689.8,978,682.09,978,682.09Z" transform="matrix(1, 0, 0, 1, -124.650002, -97.839996)"/>
  <path class="cls-1" d="M819.67,693.31s24.67.92,67.67-2.67l-37.17-74.17-72.5,40-41.66-75-71.34,40.39-41-74.89-71,37-21.33-33.66-12.67,48Z" transform="matrix(1, 0, 0, 1, -124.650002, -97.839996)"/>
  <path class="cls-1" d="M562.17,551.48l72-38,40.5,73,72-39.5,40.5,77.33,73.5-41.83,40,77.94,62-36.11-11.28-37.45a4.69,4.69,0,0,0-3.09-3.12l-395.19-123a.88.88,0,0,0-1.13.67l-9.49,48.41a4.81,4.81,0,0,0,.42,3.1Zm347.79,51a8.88,8.88,0,1,1-8.87,8.87A8.88,8.88,0,0,1,910,602.45Zm-108.67-35a8.88,8.88,0,1,1-8.87,8.87A8.87,8.87,0,0,1,801.29,567.48Zm-115-35a8.88,8.88,0,1,1-8.87,8.87A8.87,8.87,0,0,1,686.29,532.48ZM578,499.48a8.88,8.88,0,1,1-8.87,8.87A8.87,8.87,0,0,1,578,499.48Z" transform="matrix(1, 0, 0, 1, -124.650002, -97.839996)"/>
  <path class="cls-1" d="M830.67,233c-29-89-54-138-122-135s-70,52-85,109-64,230-64,230l382,119C895.67,414,859.67,322,830.67,233Z" transform="matrix(1, 0, 0, 1, -124.650002, -97.839996)"/>
  <path class="cls-1" d="M736,723.47c-415.34,9-611.36-75-611.36-75S143.34,738.31,204,813l113.33-65.33,84,103.33,130-73.33s72.67,90,74.67,90,123.33-82,123.33-82l86,82L924,767.64l102,74,107.33-100L1228.67,811s98.67-84,120-188.66C1348.67,622.31,1151.34,714.47,736,723.47Z" transform="matrix(1, 0, 0, 1, -124.650002, -97.839996)"/>
  <path class="cls-1" d="M1029.67,887.47l-103-76L815.17,915l-91.5-88-120,88.5-81-95.5-129,73-85.5-104L224,839s87.66,136.5,434.16,124.5c0,0,126.5,1,169.5.75s193,11.75,378-128.91l-68.5-51.84Z" transform="matrix(1, 0, 0, 1, -124.650002, -97.839996)"/>
</svg>