<?xml version="1.0" encoding="utf-8"?>
<svg viewBox="241.52 934.157 740.989 210.983" xmlns="http://www.w3.org/2000/svg">
  <defs>
    <style>.cls-1{fill:#FFFFFF;}</style>
  </defs>
  <path class="cls-1" d="M1095.69,1075.46a8.12,8.12,0,0,0-11,1.61c-8.09,10.18-37.64,43.41-78.53,43.41-54.8,0-92.12-25.27-125-47.56-25.32-17.14-47.18-31.94-72-31.94-45.59,0-67.59,29-74.24,55.73C728.26,1070,706.26,1041,660.67,1041c-24.78,0-46.65,14.8-72,31.94-32.93,22.29-70.24,47.56-125,47.56-40.89,0-70.45-33.23-78.53-43.41a8.11,8.11,0,0,0-14.46,5.09C371.3,1155.52,404,1243,556.42,1243c36.26,0,68-5.42,94.4-16.09,22.16-9,40.66-21.67,55-37.75a124.83,124.83,0,0,0,29.11-56.51A124.76,124.76,0,0,0,764,1189.14c14.34,16.08,32.84,28.78,55,37.75,26.39,10.67,58.15,16.09,94.41,16.09,152.39,0,185.12-87.46,185.74-160.82v-.06A8.12,8.12,0,0,0,1095.69,1075.46Z" transform="matrix(1, 0, 0, 1, -124.650002, -97.839996)"/>
</svg>